<?xml version="1.0" encoding="iso-8859-1"?>
<!-- Generator: Adobe Illustrator 19.0.0, SVG Export Plug-In . SVG Version: 6.00 Build 0)  -->
<svg version="1.1" id="Capa_1" xmlns="http://www.w3.org/2000/svg" xmlns:xlink="http://www.w3.org/1999/xlink" x="0px" y="0px"
	 viewBox="0 0 512 512" style="enable-background:new 0 0 512 512;" xml:space="preserve">
<g>
	<g>
		<rect x="117.333" y="64" width="106.667" height="21.333"/>
	</g>
</g>
<g>
	<g>
		<rect x="117.333" y="106.667" width="21.333" height="21.333"/>
	</g>
</g>
<g>
	<g>
		<rect x="160" y="106.667" width="21.333" height="21.333"/>
	</g>
</g>
<g>
	<g>
		<path d="M455.541,88.459L370.208,3.125c-2-2-4.713-3.125-7.541-3.125H85.333c-17.673,0-32,14.327-32,32v448
			c0,17.673,14.327,32,32,32h341.333c17.673,0,32-14.327,32-32V96C458.666,93.171,457.542,90.459,455.541,88.459z M437.333,480
			c0,5.891-4.776,10.667-10.667,10.667H85.333c-5.891,0-10.667-4.776-10.667-10.667V32c0-5.891,4.776-10.667,10.667-10.667
			l272.917,0l79.083,79.083V480z"/>
	</g>
</g>
<g>
	<g>
		<path d="M384,85.333c-5.891,0-10.667-4.776-10.667-10.667v-64H352v64c0,17.673,14.327,32,32,32h21.333V85.333H384z"/>
	</g>
</g>
<g>
	<g>
		<path d="M334.037,341.877c-15.647-5.19-31.013-11.189-46.037-17.973v-0.501c26.018-12.373,42.615-38.592,42.667-67.403v-32
			c0-41.237-33.429-74.667-74.667-74.667S181.333,182.763,181.333,224v32c0.051,28.81,16.648,55.029,42.667,67.403v0.501
			c-15.024,6.785-30.391,12.784-46.037,17.973c-38.848,12.949-39.296,40.939-39.296,42.123v64H160v-63.712
			c0-0.576,1.067-14.293,24.704-22.165c18.697-6.115,36.979-13.433,54.731-21.909c3.617-1.807,5.901-5.504,5.899-9.547v-14.389
			c0.002-4.519-2.844-8.549-7.104-10.059c-21.278-7.54-35.515-27.645-35.563-50.219v-32c0-29.455,23.878-53.333,53.333-53.333
			s53.333,23.878,53.333,53.333v32c-0.047,22.574-14.285,42.679-35.563,50.219c-4.26,1.509-7.106,5.539-7.104,10.059v14.389
			c-0.022,4.062,2.265,7.784,5.899,9.6c17.753,8.458,36.035,15.759,54.731,21.856C350.933,369.995,352,383.712,352,384v64h21.333
			v-64C373.333,382.816,372.885,354.827,334.037,341.877z"/>
	</g>
</g>
<g>
	<g>
		<rect x="298.667" y="394.667" width="21.333" height="53.333"/>
	</g>
</g>
<g>
	<g>
		<rect x="192" y="394.667" width="21.333" height="53.333"/>
	</g>
</g>
<g>
</g>
<g>
</g>
<g>
</g>
<g>
</g>
<g>
</g>
<g>
</g>
<g>
</g>
<g>
</g>
<g>
</g>
<g>
</g>
<g>
</g>
<g>
</g>
<g>
</g>
<g>
</g>
<g>
</g>
</svg>
